PathFileType	3	(X/Y/Z)	D:\VICON_DB\Goncalves\Pilot01\09-03-2026\bw_sq_140_02.trc
DataRate	CameraRate	NumFrames	NumMarkers	Units	OrigDataRate	OrigDataStartFrame	OrigNumFrames
200.0	200.0	5	34	mm	200.0	352	703	
Frame#	Time	LASI			RASI			LPSI			RPSI			LTHI			LTHAP			LTHAD			LKNE			LKNM			LTIB			LTIAP			LTIAD			LANK			LMED			LHEE			LTOE			LFMH			LSMH			LVMH			RTHI			RTHAP			RTHAD			RKNE			RKNM			RTIB			RTIAP			RTIAD			RANK			RMED			RHEE			RTOE			RFMH			RSMH			RVMH			
		X1	Y1	Z1	X2	Y2	Z2	X3	Y3	Z3	X4	Y4	Z4	X5	Y5	Z5	X6	Y6	Z6	X7	Y7	Z7	X8	Y8	Z8	X9	Y9	Z9	X10	Y10	Z10	X11	Y11	Z11	X12	Y12	Z12	X13	Y13	Z13	X14	Y14	Z14	X15	Y15	Z15	X16	Y16	Z16	X17	Y17	Z17	X18	Y18	Z18	X19	Y19	Z19	X20	Y20	Z20	X21	Y21	Z21	X22	Y22	Z22	X23	Y23	Z23	X24	Y24	Z24	X25	Y25	Z25	X26	Y26	Z26	X27	Y27	Z27	X28	Y28	Z28	X29	Y29	Z29	X30	Y30	Z30	X31	Y31	Z31	X32	Y32	Z32	X33	Y33	Z33	X34	Y34	Z34	
352	1.755	219.17703	456.79706	-1095.2947	212.28154	459.01285	-1357.1818				410.88092	507.38156	-1260.0875	237.57005	481.48215	-1022.5514	277.10516	478.18558	-1040.5082	233.03183	460.34375	-945.1983	127.23598	429.0733	-827.55664				178.5954	265.70361	-804.31104	69.611908	315.35938	-802.53369	142.2617	225.0054	-801.35889	257.3519	74.537018	-842.00391				269.7818	66.642654	-907.77325	183.04962	72.124519	-819.72681	123.74455	44.184177	-815.09973				172.49525	25.822865	-750.31097	210.036	456.35297	-1500.2898	248.26244	484.7652	-1400.3662	189.00031	481.46875	-1424.8688	111.62778	422.83408	-1592.2245				141.31633	271.68854	-1631.2759	54.203552	294.52432	-1621.5886	99.664429	221.601	-1608.5802	255.82188	67.036812	-1571.873				263.92334	63.980579	-1517.1703	173.66585	69.917458	-1605.8126	119.12455	49.891533	-1610.642				167.99931	22.954531	-1666.4287
353	1.76	219.13394	456.77112	-1095.2494	212.29539	459.00247	-1357.1416				410.9025	507.29453	-1260.0096	237.51007	481.44156	-1022.4997	277.069	478.13348	-1040.4641	232.9502	460.2847	-945.14435	127.14344	429.02634	-827.51056				178.54532	265.68301	-804.29449	69.551208	315.32297	-802.50476	142.21906	224.9754	-801.33777	257.34927	74.5364	-842.01477				269.76794	66.647285	-907.77966	183.04153	72.129829	-819.73523	123.7446	44.181557	-815.09869				172.48837	25.816938	-750.31	210.0472	456.33105	-1500.2506	248.31235	484.77597	-1400.3549	189.01277	481.45633	-1424.8438	111.63806	422.83304	-1592.2				141.332	271.70493	-1631.2688	54.213089	294.54596	-1621.5942	99.674561	221.61372	-1608.5845	255.81941	67.039673	-1571.866				263.91745	63.979877	-1517.1633	173.66435	69.921669	-1605.8192	119.1268	49.891216	-1610.6442				167.99687	22.943308	-1666.4312
354	1.765	219.08247	456.75787	-1095.2047	212.30159	459.00555	-1357.1047				410.91763	507.22498	-1259.9319	237.44054	481.41107	-1022.4442	277.02383	478.09369	-1040.4209	232.86102	460.23181	-945.08801	127.04668	428.97906	-827.46057				178.49364	265.66162	-804.27594	69.491051	315.28604	-802.47144	142.17525	224.94432	-801.31274	257.34677	74.536102	-842.02484				269.75366	66.652832	-907.78522	183.03363	72.136147	-819.74243	123.745	44.178833	-815.09735				172.48186	25.8104	-750.30817	210.05656	456.31564	-1500.2209	248.35179	484.78397	-1400.342	189.02089	481.45486	-1424.8284	111.65089	422.8356	-1592.1919				141.35385	271.72104	-1631.2703	54.228313	294.56827	-1621.6127	99.687698	221.62769	-1608.6002	255.81783	67.041626	-1571.8618				263.91171	63.980347	-1517.1592	173.66415	69.925255	-1605.8313	119.13034	49.891037	-1610.6505				167.99553	22.927525	-1666.4371
355	1.77	219.02345	456.75662	-1095.1611	212.30029	459.02185	-1357.0713				410.92615	507.17252	-1259.8552	237.36227	481.39041	-1022.3855	276.96982	478.06589	-1040.379	232.76511	460.18484	-945.03015	126.94629	428.93161	-827.40796				178.44075	265.63953	-804.25568	69.43084	315.24722	-802.43488	142.13075	224.91225	-801.284	257.34424	74.536156	-842.034				269.73926	66.659134	-907.78979	183.02597	72.143341	-819.7486	123.74567	44.176056	-815.0954				172.47577	25.803053	-750.30511	210.0643	456.30646	-1500.2003	248.37991	484.7872	-1400.327	189.02502	481.46396	-1424.8226	111.66595	422.84174	-1592.2004				141.3815	271.73672	-1631.28	54.249294	294.59052	-1621.6426	99.703575	221.64281	-1608.6273	255.81714	67.042717	-1571.8612				263.90613	63.981838	-1517.1584	173.66533	69.928101	-1605.8483	119.13516	49.891014	-1610.6609				167.99521	22.907454	-1666.4463
356	1.775	218.95758	456.76663	-1095.1188	212.29175	459.05087	-1357.0413				410.92737	507.13693	-1259.7804	237.27589	481.3793	-1022.3242	276.90735	478.0498	-1040.3386	232.66306	460.14368	-944.97137	126.84278	428.88428	-827.35345				178.38699	265.61673	-804.23413	69.370049	315.20523	-802.39648	142.08595	224.87927	-801.25232	257.34161	74.536552	-842.04193				269.72491	66.666039	-907.79309	183.01868	72.151207	-819.75348	123.74655	44.173286	-815.09296				172.47032	25.794716	-750.3009	210.07069	456.3031	-1500.1887	248.39621	484.78439	-1400.3101	189.02559	481.48328	-1424.826	111.68305	422.85114	-1592.2246				141.41457	271.75186	-1631.2974	54.275906	294.61188	-1621.6829	99.722015	221.65883	-1608.6647	255.81738	67.042976	-1571.8636				263.90063	63.984161	-1517.1602	173.668	69.930176	-1605.8702	119.14119	49.891182	-1610.675				167.9959	22.883429	-1666.4586
